<svg width="582" height="402" xmlns="http://www.w3.org/2000/svg">

 <g>
  <title>background</title>
  <rect fill="none" id="canvas_background" height="404" width="584" y="-1" x="-1"/>
 </g>
 <g>
  <title>Layer 1</title>
  <g stroke="null" id="svg_1">
   <g stroke="null" id="svg_2">
    <polygon stroke="null" id="svg_3" fill="#ffffff" points="123.29149015573421,357.67286185005014 123.29149015573421,341.0349302876957 47.316196497638884,341.0349302876957 20.33023813341606,250.87726148717502 1,254.91531552579454 31.750172627493157,357.67286185005014 47.316196497638884,357.67286185005014 27.367683133345054,394.3795985601346 39.44226377475388,398.91859818871944 61.90025331456127,357.67286185005014 94.81439358567513,357.67286185005014 116.39952882162106,398.85788014339505 128.5650172441965,394.4099431054374 109.30752527923687,357.67286185005014 "/>
    <polygon stroke="null" id="svg_4" fill="#ffffff" points="550.0842468842748,356.9442163514386 580.8889780542231,254.20181334511562 561.5769188757113,250.1941328065177 534.5727642143902,340.3669738796898 458.5974792273919,340.3669738796898 458.5974792273919,356.9442163514386 472.599636065439,356.9442163514386 453.3239608100266,393.75718792480166 465.47126594214933,398.17475146273773 487.05640117809526,356.9442163514386 519.9887420818559,356.9442163514386 542.4103607052093,398.2354695080621 554.5031072948768,393.69646987947726 534.5545895950345,356.9442163514386 "/>
    <polygon stroke="null" id="svg_5" fill="#ffffff" points="180.22750000539963,313.5276578801486 180.22750000539963,402.06099591068687 188.04688719247497,402.06099591068687 188.04688719247497,313.5276578801486 185.2646443179765,313.5276578801486 "/>
    <polygon stroke="null" id="svg_6" fill="#ffffff" points="462.99816501863825,335.3270286611396 490.5114864970237,335.3270286611396 499.60379072676005,335.3270286611396 505.8410842357989,335.3270286611396 521.789000560937,335.3270286611396 495.3667805628793,226.05695802958417 451.52366764655744,226.05695802958417 421.4463374634943,266.4070380516014 422.59196280188917,264.19067014630764 421.1917540549621,265.9668105069604 387.87753803840315,254.86976975312155 380.9310181618348,268.9118528655845 200.55789281804027,268.7600432749141 193.93868951181503,255.55289843377886 160.6608574183556,266.64993918761775 130.31075186521048,226.77046021026308 86.52221483353787,226.77046021026308 60.11816078373886,336.0253296144483 76.02969318577743,336.0253296144483 82.26701270810736,336.0253296144483 91.39569218984616,336.0253296144483 118.85444645467942,336.0253296144483 120.5637971525939,336.0253296144483 135.7297539483916,336.0253296144483 145.40397549919726,336.0253296144483 145.40397549919726,313.5276578801486 131.71096061213757,313.5276578801486 131.71096061213757,313.5276578801486 115.25389481212915,313.5276578801486 133.92947812711645,262.961050103012 140.330481947909,271.56844831551916 135.4569959205037,271.56844831551916 135.4569959205037,289.29939155786906 148.73175177166559,289.29939155786906 148.73175177166559,313.5276578801486 148.73175177166559,336.0253296144483 148.73175177166559,402.06099591068687 153.3688290098944,402.06099591068687 176.917898352287,402.06099591068687 176.917898352287,313.5276578801486 176.917898352287,289.29939155786906 408.2443147741433,289.29939155786906 408.2443147741433,312.81415569946967 408.2443147741433,402.06099591068687 428.501974424973,402.06099591068687 436.39409477385925,402.06099591068687 436.39409477385925,335.3270286611396 436.39409477385925,312.81415569946967 436.39409477385925,289.29939155786906 448.30499111680547,289.29939155786906 448.30499111680547,271.56844831551916 441.031154669894,271.56844831551916 447.95949992710666,262.29309369500606 466.5987166611885,312.84452919949126 450.17801744208555,312.84452919949126 450.17801744208555,312.81415569946967 439.72185370413354,312.81415569946967 439.72185370413354,335.3270286611396 446.1410321442818,335.3270286611396 461.28881432072376,335.3270286611396 "/>
    <polygon stroke="null" id="svg_7" fill="#ffffff" points="393.8602828232979,312.81415569946967 393.8602828232979,402.06099591068687 404.9165211594809,402.06099591068687 404.9165211594809,312.81415569946967 396.6061417746969,312.81415569946967 "/>
    <path stroke="null" id="svg_8" fill="#ffffff" d="m104.34313,175.277827c-0.672831,1.715409 -1.182,3.582624 -1.527507,5.434659c-2.036676,11.021124 2.654953,21.541288 11.438119,28.843162c0.254585,0.227709 0.418246,0.440238 0.654646,0.637586c0.672831,0.546502 1.454769,0.98674 2.163968,1.502881c1.400215,0.98674 2.854984,1.958299 4.400675,2.793233c0.072738,0.030361 0.127292,0.045542 0.181846,0.091084c4.327937,2.246731 9.237781,3.779972 14.511318,4.432739c0.145477,0.030361 0.272769,0.106264 0.400061,0.106264c0.4728,0.060722 0.90923,0.030361 1.363846,0.060722c1.327476,0.121445 2.654953,0.333973 4.018798,0.333973c0.436431,0 0.854677,-0.091084 1.272923,-0.121445c2.127599,-0.030361 4.164275,-0.227709 6.200951,-0.50096c0.127292,-0.030361 0.254585,-0.030361 0.381877,-0.060722c16.49344,-2.47444 30.077342,-13.298216 32.768664,-27.901964c0.654646,-3.673708 0.400061,-7.271513 -0.290954,-10.747873l9.801504,-8.288614l-13.711195,-6.132967l5.09169,-12.007864l-18.511931,1.943118l-5.509936,-15.286876l-17.548147,11.233653l-9.637842,-12.857978l-8.273997,14.284956l-17.87547,-7.544764l4.65526,14.14833l-14.256733,1.426977l9.892427,10.17101c-0.727384,1.305533 -1.509323,2.641426 -2.054861,4.007681z"/>
    <path stroke="null" id="svg_9" fill="#ffffff" d="m470.017421,159.672158l4.637075,-14.14833l-17.820916,7.544764l-8.310366,-14.284956l-9.637842,12.873159l-17.566332,-11.233653l-5.546306,15.286876l-18.511931,-1.943118l5.109875,12.007864l-13.711195,6.132967l9.801504,8.288614c-0.7092,3.47636 -0.963784,7.074165 -0.309138,10.747873c3.400522,18.383721 23.985499,30.998809 45.988875,28.160035c3.818768,-0.470599 7.292028,-1.518061 10.656181,-2.823594c0.054554,-0.015181 0.090923,-0.045542 0.163661,-0.060722c1.891199,-0.728669 3.673291,-1.502881 5.364459,-2.428898c1.600246,-0.865295 3.091383,-1.821673 4.527968,-2.869136c0.2364,-0.166987 0.454615,-0.303612 0.691015,-0.470599c7.18292,-5.389117 11.783626,-12.964242 12.529195,-21.450204c0.072738,-0.652766 0.218215,-1.275171 0.254585,-1.943118c0,-0.136626 0.036369,-0.25807 0.036369,-0.379515c0,-0.409877 -0.127292,-0.834934 -0.163661,-1.24481c0,-1.563603 0,-3.127206 -0.309138,-4.72117c-0.363692,-1.852035 -0.854677,-3.71925 -1.527507,-5.434659c-0.563723,-1.366255 -1.345661,-2.702149 -2.054861,-4.007681l9.910612,-10.17101l-14.202179,-1.426977z"/>
    <circle stroke="null" id="svg_10" fill="#ffffff" r="38.953449" cy="93.909748" cx="275.514849"/>
    <polygon stroke="null" id="svg_11" fill="#ffffff" points="236.59979316664248,313.83127706148935 233.3811166368905,313.83127706148935 214.6691493988037,317.23171923740574 214.6691493988037,331.62293834916363 230.59887376239203,331.62293834916363 249.20172391556844,329.08777898987773 249.36538220074,331.62293834916363 269.9867250028183,331.62293834916363 269.9867250028183,315.56187164946914 269.9867250028183,313.83127706148935 269.9867250028183,295.4930954564579 236.59979316664248,295.4930954564579 "/>
    <polygon stroke="null" id="svg_12" fill="#ffffff" points="315.1027549618011,313.83127706148935 315.1027549618011,295.4930954564579 281.733980402787,295.4930954564579 281.733980402787,313.83127706148935 281.733980402787,315.56187164946914 281.733980402787,331.62293834916363 302.3189566239598,331.62293834916363 302.5008068706811,329.08777898987773 321.12184898540727,331.62293834916363 337.03338138744584,331.62293834916363 337.03338138744584,317.23171923740574 318.3032221878093,313.83127706148935 "/>
    <polygon stroke="null" id="svg_13" fill="#ffffff" points="480.3280807869596,68.98318232090242 394.3148910979071,110.13782711422573 392.2963984490052,106.90435232427171 318.7760397661623,138.72290997439814 292.4810767879826,138.72290997439814 274.69655274505203,155.9225486041205 257.475719377253,138.72290997439814 219.68810174983082,144.56744891897324 217.2695420265809,214.58043673114753 233.29019151352986,214.58043673114753 234.1630414818428,229.0930919335542 236.59979316664248,229.0930919335542 236.59979316664248,237.95856355472915 236.59979316664248,244.53177695263457 236.59979316664248,261.9743022410139 269.9867250028183,261.9743022410139 269.9867250028183,244.53177695263457 281.733980402787,244.53177695263457 281.733980402787,261.9743022410139 315.1027549618011,261.9743022410139 315.1027549618011,244.53177695263457 315.1027549618011,237.95856355472915 315.1027549618011,229.0930919335542 318.1031973217323,229.0930919335542 322.41294064742397,158.71578137207416 402.8798538912233,123.9066355906507 396.133358880732,113.03732370017678 398.06090906407917,115.89127451345485 484.2741583035968,74.67591167480714 "/>
    <path stroke="null" id="svg_14" fill="#ffffff" d="m122.855061,30.090457l0.2364,-0.060722l0,-12.964242l402.043508,0l0,168.77804l-37.823986,0c0.036369,0.607224 0.218215,1.168907 0.218215,1.776132c0,4.007681 -0.927415,7.802834 -2.236707,11.461362l59.918285,0l0,-195.253027l-442.213309,0l0,13.024965l0,17.275536l0,102.985269l19.803039,6.603566l0.054554,-113.626878z"/>
    <path stroke="null" id="svg_15" fill="#ffffff" d="m186.992175,199.081026l17.16627,0l5.873629,0l0.927415,-13.768815l-19.221131,0c-0.7092,4.888157 -2.291261,9.503063 -4.746183,13.768815z"/>
    <path stroke="null" id="svg_16" fill="#ffffff" d="m330.95972,185.266669l-0.600092,13.237493l63.282437,0.576863c-1.309292,-3.658527 -2.254891,-7.45368 -2.254891,-11.461362c0,-0.607224 0.200031,-1.168907 0.2364,-1.776132l-60.663854,-0.576863z"/>
   </g>
  </g>
  <g id="svg_17"/>
  <g id="svg_18"/>
  <g id="svg_19"/>
  <g id="svg_20"/>
  <g id="svg_21"/>
  <g id="svg_22"/>
  <g id="svg_23"/>
  <g id="svg_24"/>
  <g id="svg_25"/>
  <g id="svg_26"/>
  <g id="svg_27"/>
  <g id="svg_28"/>
  <g id="svg_29"/>
  <g id="svg_30"/>
  <g id="svg_31"/>
 </g>
</svg>